#!OML:ASF F:\VICON\USERDATA\INSTALL\rory3\rory3.ASF
:FULLY-SPECIFIED
:DEGREES
18
root 0.3616090000000005 17.8699 -20.576999999999963 -2.57157 3.3328900000000097 -0.9144389999999976
lfemur 11.306099999999967 -3.4306000000000005 -22.707800000000006
ltibia 32.2907
lfoot -6.98736 -8.770309999999988
ltoes -20.371400000000015
rfemur -25.162699999999973 1.42978 24.443799999999996
rtibia 26.928199999999997
rfoot -4.0243400000000005 -6.86872
rtoes 0.37212899999999793
lowerback 10.8706 -1.5697400000000021 -2.8293600000000056
upperback -0.22856999999999977 -2.2875499999999986 2.57944
thorax -6.12859 -0.9949909999999972 4.682099999999997
lowerneck -15.024499999999996 -2.5323699999999976 -2.13706
upperneck 22.2184 -2.990779999999998 -0.07704819999999679
head 9.53106 -1.5841499999999997 -0.04494199999999973
lclavicle 1.0312000000000066e-15 1.749309999999998e-14
lhumerus -24.407500000000006 1.4782200000000012 83.6559
lradius 28.397399999999998
lwrist 6.045959999999999
lhand -33.172900000000006 14.804400000000003
lfingers nan
lthumb -6.381129999999992 44.688199999999995
rclavicle 1.0312000000000066e-15 1.749309999999998e-14
rhumerus -41.16769999999998 -33.0882 -66.0153
rradius 17.95760000000002
rwrist 15.411599999999991
rhand -18.1349 21.7492
rfingers nan
rthumb 8.14012 -8.074
19
root 0.3256700000000005 17.9489 -19.96580000000005 -2.93812 2.7384600000000034 -1.0951999999999997
lfemur 8.930350000000027 -2.0134400000000006 -21.6371
ltibia 38.5048
lfoot 2.050310000000014 -12.79949999999999
ltoes -18.99279999999999
rfemur -23.434100000000008 1.4074800000000012 25.124000000000002
rtibia 28.574799999999975
rfoot -5.354159999999997 -7.208759999999997
rtoes 6.398809999999995
lowerback 10.367699999999997 -1.1643799999999982 -2.339010000000007
upperback 0.19621399999999994 -1.700219999999996 2.2386599999999994
thorax -5.478009999999999 -0.747145 3.92133
lowerneck -15.8929 -2.8221 -1.6490399999999994
upperneck 22.5007 -3.5077800000000012 -0.06863979999999703
head 9.78886 -1.77785 -0.20512900000000098
lclavicle 9.790140000000008e-15 -1.192709999999999e-14
lhumerus -25.088600000000007 1.2777899999999986 83.8047
lradius 28.68
lwrist 6.489220000000001
lhand -32.29879999999999 20.0955
lfingers nan
lthumb -5.537260000000002 50.0031
rclavicle 9.790140000000008e-15 -1.192709999999999e-14
rhumerus -41.372499999999995 -34.59699999999998 -65.94180000000001
rradius 18.056899999999974
rwrist 16.14390000000001
rhand -17.0292 22.6563
rfingers nan
rthumb 9.207190000000002 -7.12269
20
root 0.28447399999999967 18.0204 -19.386000000000024 -3.5479600000000007 2.765640000000003 -2.31696
lfemur 5.61053000000002 -1.276369999999999 -19.3021
ltibia 45.27240000000002
lfoot 11.50529999999998 -16.702800000000018
ltoes -18.30890000000001
rfemur -20.95330000000001 1.1917999999999993 26.9315
rtibia 28.62900000000002
rfoot -5.669820000000003 -7.215910000000001
rtoes 3.821410000000002
lowerback 10.6789 -1.3953900000000008 -1.6491599999999973
upperback 0.1785439999999997 -1.8858600000000025 2.9415900000000015
thorax -5.654870000000001 -0.8439029999999991 4.313020000000004
lowerneck -15.4074 -2.6866100000000004 -2.3028699999999995
upperneck 22.2774 -3.139150000000001 -0.13430400000000087
head 9.62779 -1.6723699999999995 -0.06206879999999951
lclavicle 1.7368799999999973e-14 -1.7095499999999978e-14
lhumerus -26.881900000000012 2.698740000000001 84.3401
lradius 29.3434
lwrist 6.687669999999999
lhand -32.2387 21.073199999999996
lfingers nan
lthumb -5.479170000000003 50.9824
rclavicle 1.7368799999999973e-14 -1.7095499999999978e-14
rhumerus -40.17210000000001 -31.062699999999978 -67.9886
rradius 18.857300000000002
rwrist 13.450800000000005
rhand -17.4316 21.450999999999997
rfingers nan
rthumb 8.81887 -8.344780000000004
21
root 0.27261553053587284 17.93778711183366 -0.015240717330822662 -2.2494485213636004 -2.353089749080402 -6.768437528311736
lfemur -3.7840872384919315 -0.7886702387505848 -12.0883221126232
ltibia 55.26740546938416
lfoot 4.097935030130852 -6.891394969642874
ltoes -10.698147605943134
rfemur -9.466004984742984 2.649776576819387 31.497494720811037
rtibia 21.173994982553314
rfoot -6.977945293241635 -11.375344558103954
rtoes 7.848746405122989
lowerback 11.254683877359847 0.1469770160078227 3.0397947524095477
upperback 0.14755949138321067 1.2936367539856313 2.6878019870305887
thorax -6.411899211639786 0.5982614023615762 1.4054912500848622
lowerneck -16.239118371992387 -2.977650849598793 -1.5403211215052044
upperneck 22.590229264488812 -3.9085563499411826 0.01692451258484562
head 9.994171840416692 -1.965947833769046 -0.22641101941207978
lclavicle -2.5579106113943705e-15 -2.7570666474361286e-15
lhumerus -29.650515003176036 -0.17022578224222018 84.16269512363372
lradius 25.420994312376152
lwrist 9.355176591909554
lhand -29.926383160433183 18.58442455304474
lfingers nan
lthumb -3.3869189478543786 48.10614225838585
rclavicle -2.6591845645156744e-15 -2.8033790173951142e-15
rhumerus -36.00399450556509 -30.652724263538385 -70.09100579381902
rradius 20.389432924328638
rwrist 8.779376100383738
rhand -17.44076001856712 22.462113460171096
rfingers nan
rthumb 8.74316205732478 -7.331570152270082
22
root 0.26955132577007695 17.87509474046703 -0.8639991989546889 -2.316357088387512 -4.81923292392539 -5.5332102444221
lfemur -7.482242117365148 0.585323759642324 -10.811519249412711
ltibia 61.57487921297253
lfoot 0.6557623699715842 -2.6371183272045124
ltoes -13.030965532256026
rfemur -6.534429175616308 4.469440159089319 31.489348363109922
rtibia 16.77509339631636
rfoot -5.261929483508025 -11.944927620320493
rtoes 10.452246471884866
lowerback 11.488042194646724 0.5096434125980982 1.6763977085271202
upperback 0.3206923981013577 1.5655109741997084 2.4551649517882757
thorax -6.4101467712639675 0.751946226146011 1.0255239780594456
lowerneck -16.86458636568347 -3.209806525253649 -1.1278819093107186
upperneck 22.09861051083343 -4.326500101957787 0.41488997461897226
head 9.842663763439917 -2.09170811154003 -0.15984639544666293
lclavicle -2.5173703948085277e-15 -2.742384236065864e-15
lhumerus -30.98468161205362 -0.2153360556904258 84.04103210815884
lradius 22.410206043071472
lwrist 10.54766551018551
lhand -29.86098509679429 16.15410046632016
lfingers nan
lthumb -3.0674760403513495 46.214917970039785
rclavicle -2.6408732972464018e-15 -2.8161634563316786e-15
rhumerus -32.79825513089899 -28.118581273070916 -71.8677155044327
rradius 21.333700701737946
rwrist 6.480749899898212
rhand -17.58148533758551 23.236527061633225
rfingers nan
rthumb 8.683404825629509 -6.374528031948241
